<svg xmlns="http://www.w3.org/2000/svg" viewBox="0 0 24 24" width="48" height="48">
  <defs>
    <linearGradient id="grad1" x1="0%" y1="0%" x2="100%" y2="100%">
      <stop offset="0%" stop-color="#FFFFFF" />
      <stop offset="50%" stop-color="#CBD5E1" />
      <stop offset="100%" stop-color="#64748B" />
    </linearGradient>
    <linearGradient id="grad2" x1="0%" y1="0%" x2="100%" y2="100%">
      <stop offset="0%" stop-color="#FFFFFF" />
      <stop offset="100%" stop-color="#94A3B8" />
    </linearGradient>
    <linearGradient id="grad3" x1="0%" y1="0%" x2="100%" y2="100%">
      <stop offset="0%" stop-color="#E2E8F0" />
      <stop offset="100%" stop-color="#475569" />
    </linearGradient>
  </defs>
  <!-- Main Sparkle -->
  <path d="M12 2C12 7.5 16.5 12 22 12C16.5 12 12 16.5 12 22C12 16.5 7.5 12 2 12C7.5 12 12 7.5 12 2Z" fill="url(#grad1)"/>
  <!-- Secondary Sparkle Top Right -->
  <path d="M19 3C19 5.2 20.8 7 23 7C20.8 7 19 8.8 19 11C19 8.8 17.2 7 15 7C17.2 7 19 5.2 19 3Z" fill="url(#grad2)"/>
  <!-- Tertiary Sparkle Bottom Left -->
  <path d="M5 13C5 14.8 6.2 16 8 16C6.2 16 5 17.2 5 19C5 17.2 3.8 16 2 16C3.8 16 5 14.8 5 13Z" fill="url(#grad3)"/>
</svg>